{"title":"Delhi Safari (2012) - Hindi - DVDRip - XviD - 1CDRip - ESubs","uid":7991847,"size":746133146,"categoryP":"video","categoryS":"movies","magnet":"?xt=urn:btih:8be17ab97e1c8193250cb5541f83d44f28385e25&amp;dn=Delhi+Safari+%282012%29+-+Hindi+-+DVDRip+-+XviD+-+1CDRip+-+ESubs&amp;tr=udp%3A%2F%2Ftracker.openbittorrent.com%3A80&amp;tr=udp%3A%2F%2Fopen.demonii.com%3A1337&amp;tr=udp%3A%2F%2Ftracker.coppersurfer.tk%3A6969&amp;tr=udp%3A%2F%2Fexodus.desync.com%3A6969","seeders":1,"leechers":1,"uploader":"HDvideos","files":4,"time":1357445857,"description":"mastitorrents.com\n  &lt;a href=&quot;\nhttp://mastitorrents.com/forums/index.php&quot; rel=&quot;nofollow&quot; target=&quot;_NEW&quot;&gt;\nhttp://mastitorrents.com/forums/index.php&lt;/a&gt;\n  &lt;a href=&quot;\nhttp://thepiratebay.se/user/HDvideos/0/7&quot; rel=&quot;nofollow&quot; target=&quot;_NEW&quot;&gt;\nhttp://thepiratebay.se/user/HDvideos/0/7&lt;/a&gt;\n\nDelhi Safari (2012) - Hindi - DVDRip - XviD - 1CDRip - ESubs\n\nFormat                                   : AVI\nFormat/Info                              : Audio Video Interleave\nFile size                                : 698 MiB\nDuration                                 : 1h 32mn\nOverall bit rate                         : 1 054 Kbps\n\nCodec ID                                 : XVID\nCodec ID/Hint                            : XviD\nDuration                                 : 1h 32mn\nBit rate                                 : 917 Kbps\nWidth                                    : 688 pixels\nHeight                                   : 288 pixels\nDisplay aspect ratio                     : 2.40:1\nFrame rate                               : 29.970 fps\nColor space                              : YUV\nChroma subsampling                       : 4:2:0\nBit depth                                : 8 bits\nScan type                                : Progressive\nCompression mode                         : Lossy\nBits/(Pixel*Frame)                       : 0.154\nStream size                              : 607 MiB (87%)\n\nFormat                                   : AC-3\nFormat/Info                              : Audio Coding 3\nMode extension                           : CM (complete main)\nFormat settings, Endianness              : Big\nCodec ID                                 : 2000\nDuration                                 : 1h 32mn\nBit rate mode                            : Constant\nBit rate                                 : 128 Kbps\nChannel(s)                               : 6 channels\nChannel positions                        : Front: L C R, Side: L R, LFE\nSampling rate                            : 48.0 KHz\nBit depth                                : 16 bits\nCompression mode                         : Lossy\nStream size                              : 84.8 MiB (12%)\nAlignment                                : Aligned on interleaves\nInterleave, duration                     : 64 ms (1.92 video frames)\nInterleave, preload duration             : 192 ms\n\nScreens: &lt;a href=&quot;\nhttp://img13.imageshack.us/img13/1986/dehlisafari2012original.jpg&quot; rel=&quot;nofollow&quot; target=&quot;_NEW&quot;&gt;\nhttp://img13.imageshack.us/img13/1986/dehlisafari2012original.jpg&lt;/a&gt; &lt;a href=&quot;\nhttp://img29.imageshack.us/img29/7135/72351828.png&quot; rel=&quot;nofollow&quot; target=&quot;_NEW&quot;&gt;\nhttp://img29.imageshack.us/img29/7135/72351828.png&lt;/a&gt; &lt;a href=&quot;\nhttp://img267.imageshack.us/img267/5717/54074030.png&quot; rel=&quot;nofollow&quot; target=&quot;_NEW&quot;&gt;\nhttp://img267.imageshack.us/img267/5717/54074030.png&lt;/a&gt; &lt;a href=&quot;\nhttp://img407.imageshack.us/img407/3037/84734570.png&quot; rel=&quot;nofollow&quot; target=&quot;_NEW&quot;&gt;\nhttp://img407.imageshack.us/img407/3037/84734570.png&lt;/a&gt; &lt;a href=&quot;\nhttp://img838.imageshack.us/img838/1017/16143958.png&quot; rel=&quot;nofollow&quot; target=&quot;_NEW&quot;&gt;\nhttp://img838.imageshack.us/img838/1017/16143958.png&lt;/a&gt; &lt;a href=&quot;\nhttp://img210.imageshack.us/img210/4479/51742041.png&quot; rel=&quot;nofollow&quot; target=&quot;_NEW&quot;&gt;\nhttp://img210.imageshack.us/img210/4479/51742041.png&lt;/a&gt; &lt;a href=&quot;\nhttp://img443.imageshack.us/img443/1276/58877388.png&quot; rel=&quot;nofollow&quot; target=&quot;_NEW&quot;&gt;\nhttp://img443.imageshack.us/img443/1276/58877388.png&lt;/a&gt; &lt;a href=&quot;\nhttp://img827.imageshack.us/img827/7245/31449050.png&quot; rel=&quot;nofollow&quot; target=&quot;_NEW&quot;&gt;\nhttp://img827.imageshack.us/img827/7245/31449050.png&lt;/a&gt; &lt;a href=&quot;\nhttp://img94.imageshack.us/img94/2532/31206703.png&quot; rel=&quot;nofollow&quot; target=&quot;_NEW&quot;&gt;\nhttp://img94.imageshack.us/img94/2532/31206703.png&lt;/a&gt; &lt;a href=&quot;\nhttp://img833.imageshack.us/img833/6905/63662153.png&quot; rel=&quot;nofollow&quot; target=&quot;_NEW&quot;&gt;\nhttp://img833.imageshack.us/img833/6905/63662153.png&lt;/a&gt; &lt;a href=&quot;\nhttp://img507.imageshack.us/img507/4861/76737219.png&quot; rel=&quot;nofollow&quot; target=&quot;_NEW&quot;&gt;\nhttp://img507.imageshack.us/img507/4861/76737219.png&lt;/a&gt; &lt;a href=&quot;\nhttp://img853.imageshack.us/img853/1031/65706489.png&quot; rel=&quot;nofollow&quot; target=&quot;_NEW&quot;&gt;\nhttp://img853.imageshack.us/img853/1031/65706489.png&lt;/a&gt; &lt;a href=&quot;\nhttp://img268.imageshack.us/img268/8977/52234988.png&quot; rel=&quot;nofollow&quot; target=&quot;_NEW&quot;&gt;\nhttp://img268.imageshack.us/img268/8977/52234988.png&lt;/a&gt;","torrent":{"xt":"urn:btih:8be17ab97e1c8193250cb5541f83d44f28385e25","amp;dn":"Delhi+Safari+%282012%29+-+Hindi+-+DVDRip+-+XviD+-+1CDRip+-+ESubs","amp;tr":["udp%3A%2F%2Ftracker.openbittorrent.com%3A80","udp%3A%2F%2Fopen.demonii.com%3A1337","udp%3A%2F%2Ftracker.coppersurfer.tk%3A6969","udp%3A%2F%2Fexodus.desync.com%3A6969"],"infoHash":"8be17ab97e1c8193250cb5541f83d44f28385e25","infoHashBuffer":{"type":"Buffer","data":[139,225,122,185,126,28,129,147,37,12,181,84,31,131,212,79,40,56,94,37]},"announce":[],"urlList":[]}}